<svg width="198" height="224" viewBox="0 0 198 224" fill="none" xmlns="http://www.w3.org/2000/svg">
<path fill-rule="evenodd" clip-rule="evenodd" d="M66.4307 108.357H89.778C83.1677 101.234 79.2 91.8561 79.2 81.7516C79.2 76.3258 81.1434 71.2017 84.4857 67.4876C87.815 63.7881 92.2389 61.7972 96.7577 61.7972C101.276 61.7972 105.7 63.7881 109.03 67.4876C112.372 71.2017 114.315 76.3258 114.315 81.7516V86.8988C117.657 90.5771 117.657 90.5771 120.611 93.5313C123.565 90.5771 123.565 90.5771 127.085 86.8988V81.7516C127.085 76.3258 129.028 71.2017 132.37 67.4876C135.7 63.7881 140.124 61.7972 144.642 61.7972C149.161 61.7972 153.585 63.7881 156.914 67.4876C160.257 71.2017 162.2 76.3258 162.2 81.7516C162.2 91.8561 158.232 101.234 151.622 108.357H174.969C174.969 98.3802 174.969 91.0014 174.969 81.7516C174.969 51.9389 150.25 28.54 120.7 28.54C91.15 28.54 66.4307 51.9389 66.4307 81.7516V108.357ZM120.7 41.8429C112.122 41.8429 104.245 44.3131 97.7111 48.5107C105.539 48.7799 112.914 52.3542 118.345 58.3892C119.187 59.3251 119.973 60.3087 120.7 61.3341C121.427 60.3087 122.213 59.3251 123.055 58.3892C128.486 52.3542 135.861 48.7799 143.689 48.5107C137.155 44.3131 129.278 41.8429 120.7 41.8429Z" fill="url(#paint0_linear_126_50)"/>
<path d="M144.642 75.1001C148.169 75.1001 151.027 78.0781 151.027 81.7516C151.027 85.425 148.169 88.403 144.642 88.403H144.583C141.056 88.403 138.198 85.425 138.198 81.7516C138.198 78.0781 141.056 75.1001 144.583 75.1001H144.642Z" fill="url(#paint1_linear_126_50)"/>
<path d="M96.7577 75.1001C100.284 75.1001 103.142 78.0781 103.142 81.7516C103.142 85.425 100.284 88.403 96.7577 88.403H96.6979C93.1717 88.403 90.3132 85.425 90.3132 81.7516C90.3132 78.0781 93.1717 75.1001 96.6979 75.1001H96.7577Z" fill="url(#paint2_linear_126_50)"/>
<path d="M89.689 59.8968H61.1816C59.6939 59.8968 58.2678 59.3309 57.2158 58.3231C56.1638 57.3153 55.5768 55.2924 55.5768 53.8673C55.5768 52.4421 56.1656 51.0758 57.2177 50.0681C58.2697 49.0603 59.6958 48.4944 61.1835 48.4944H89.2264L89.689 59.8968Z" fill="url(#paint3_linear_126_50)"/>
<path d="M152.228 59.8968H180.735C182.223 59.8968 183.649 59.3309 184.701 58.3231C185.753 57.3153 186.34 55.2924 186.34 53.8673C186.34 52.4421 185.751 51.0758 184.699 50.0681C183.647 49.0603 182.221 48.4944 180.734 48.4944H152.691L152.228 59.8968Z" fill="url(#paint4_linear_126_50)"/>
<path d="M53.7731 164.093C52.7482 162.665 52.2011 160.985 52.2011 159.268C52.2011 156.964 53.1838 154.755 54.9331 153.126C56.6823 151.497 59.0549 150.582 61.5287 150.582C63.3735 150.582 65.1769 151.091 66.7108 152.046C68.2447 153 69.4402 154.357 70.1462 155.944C70.8522 157.531 71.0369 159.277 70.677 160.962C70.3171 162.647 69.4288 164.194 68.1243 165.409C66.8198 166.624 65.1578 167.451 63.3484 167.786C61.539 168.121 59.6636 167.949 57.9592 167.292C56.2548 166.634 54.798 165.521 53.7731 164.093Z" fill="url(#paint5_linear_126_50)"/>
<path fill-rule="evenodd" clip-rule="evenodd" d="M169.284 74.1499H177.19C182.633 74.1499 187.852 76.1631 191.701 79.7465C195.549 83.33 197.711 88.1902 197.711 93.258V204.432C197.711 209.5 195.549 214.36 191.701 217.943C187.852 221.527 182.633 223.54 177.19 223.54H27.9495C24.4862 223.54 21.1647 222.259 18.7157 219.979C16.2667 217.698 14.8909 214.605 14.8909 211.38V114.103C14.8909 110.878 16.2667 107.785 18.7157 105.505C21.1647 103.225 24.4862 101.943 27.9495 101.943H177.19C179.664 101.943 182.037 101.028 183.786 99.3995C185.535 97.7707 186.518 95.5615 186.518 93.258C186.518 90.9544 185.535 88.7452 183.786 87.1164C182.037 85.4875 179.664 84.5725 177.19 84.5725H169.284V74.1499ZM26.6304 212.609C26.2805 212.283 26.084 211.841 26.084 211.38V114.103C26.084 113.642 26.2805 113.201 26.6304 112.875C26.9802 112.549 27.4547 112.366 27.9495 112.366H177.19C179.182 112.368 180.432 112.368 182.213 112.367C183.994 112.366 186.34 111.208 186.518 111.208V204.432C186.518 206.736 185.535 208.945 183.786 210.574C182.037 212.202 179.664 213.117 177.19 213.117H27.9495C27.4547 213.117 26.9802 212.934 26.6304 212.609Z" fill="url(#paint6_linear_126_50)"/>
<path d="M58.0808 84.5725H72.6329V74.1499H58.0808C54.6175 74.1499 51.296 75.431 48.847 77.7114C46.3981 79.9918 45.0223 83.0846 45.0223 86.3096V102.656H56.2153V86.3096C56.2153 85.8489 56.4119 85.407 56.7617 85.0813C57.1116 84.7555 57.5861 84.5725 58.0808 84.5725Z" fill="url(#paint7_linear_126_50)"/>
<path d="M31.3001 4L26.962 21.5769C26.4326 23.7218 26.1678 24.7942 25.6455 25.671C25.1832 26.4467 24.5769 27.1081 23.8656 27.6125C23.0621 28.1824 22.079 28.4712 20.1128 29.0487L4.00067 33.7812L20.1128 38.5138C22.079 39.0912 23.0621 39.3801 23.8656 39.9499C24.5769 40.4542 25.1832 41.1157 25.6455 41.8917C26.1678 42.7682 26.4326 43.8407 26.962 45.9856L31.3001 63.5625L35.6383 45.9856C36.1676 43.8407 36.4324 42.7682 36.9548 41.8917C37.4172 41.1157 38.0234 40.4542 38.7345 39.9499C39.5382 39.3801 40.5213 39.0912 42.4874 38.5138L58.5996 33.7812L42.4874 29.0487C40.5213 28.4712 39.5382 28.1824 38.7345 27.6125C38.0234 27.1081 37.4172 26.4467 36.9548 25.671C36.4324 24.7942 36.1676 23.7218 35.6383 21.5769L31.3001 4Z" stroke="url(#paint8_linear_126_50)" stroke-width="7.44531" stroke-linecap="round" stroke-linejoin="round"/>
<defs>
<linearGradient id="paint0_linear_126_50" x1="199.5" y1="49.5" x2="-30.5" y2="288.5" gradientUnits="userSpaceOnUse">
<stop stop-color="#35C5ED"/>
<stop offset="1" stop-color="#89E898"/>
</linearGradient>
<linearGradient id="paint1_linear_126_50" x1="199.5" y1="49.5" x2="-30.5" y2="288.5" gradientUnits="userSpaceOnUse">
<stop stop-color="#35C5ED"/>
<stop offset="1" stop-color="#89E898"/>
</linearGradient>
<linearGradient id="paint2_linear_126_50" x1="199.5" y1="49.5" x2="-30.5" y2="288.5" gradientUnits="userSpaceOnUse">
<stop stop-color="#35C5ED"/>
<stop offset="1" stop-color="#89E898"/>
</linearGradient>
<linearGradient id="paint3_linear_126_50" x1="199.5" y1="49.5" x2="-30.5" y2="288.5" gradientUnits="userSpaceOnUse">
<stop stop-color="#35C5ED"/>
<stop offset="1" stop-color="#89E898"/>
</linearGradient>
<linearGradient id="paint4_linear_126_50" x1="199.5" y1="49.5" x2="-30.5" y2="288.5" gradientUnits="userSpaceOnUse">
<stop stop-color="#35C5ED"/>
<stop offset="1" stop-color="#89E898"/>
</linearGradient>
<linearGradient id="paint5_linear_126_50" x1="199.5" y1="49.5" x2="-30.5" y2="288.5" gradientUnits="userSpaceOnUse">
<stop stop-color="#35C5ED"/>
<stop offset="1" stop-color="#89E898"/>
</linearGradient>
<linearGradient id="paint6_linear_126_50" x1="199.5" y1="49.5" x2="-30.5" y2="288.5" gradientUnits="userSpaceOnUse">
<stop stop-color="#35C5ED"/>
<stop offset="1" stop-color="#89E898"/>
</linearGradient>
<linearGradient id="paint7_linear_126_50" x1="199.5" y1="49.5" x2="-30.5" y2="288.5" gradientUnits="userSpaceOnUse">
<stop stop-color="#35C5ED"/>
<stop offset="1" stop-color="#89E898"/>
</linearGradient>
<linearGradient id="paint8_linear_126_50" x1="4.00097" y1="59.5" x2="59.001" y2="-2.5" gradientUnits="userSpaceOnUse">
<stop stop-color="#D33ACD"/>
<stop offset="0.43" stop-color="#98DEA3"/>
<stop offset="1" stop-color="#31B4D8"/>
</linearGradient>
</defs>
</svg>
